<svg width="168" height="140" viewBox="0 0 168 140" fill="none" xmlns="http://www.w3.org/2000/svg">
<path d="M122.886 102.382C117.123 99.0461 114.725 93.7098 115.521 86.8819C117.278 71.645 119.198 56.4351 120.89 41.1928C121.53 35.3829 124.326 31.4336 130.26 31.8509C137.331 32.3483 138.44 37.5829 137.741 43.6473C136.285 56.4097 134.888 69.1612 133.611 81.945C133.245 85.5241 131.273 89.6134 134.573 92.5722C137.829 95.4822 139.748 98.2255 135.972 101.726C132.082 105.319 127.626 104.597 122.886 102.382Z" fill="white"/>
<path fill-rule="evenodd" clip-rule="evenodd" d="M116.024 40.1451C116.116 39.7959 116.194 39.4379 116.255 39.072C117.107 33.9971 113.14 30.4814 109.125 29.8074C106.849 29.4253 104.535 30.0707 102.802 31.6259C101.642 32.4222 100.698 33.8719 100.202 36.3159C100.173 36.4526 100.147 36.5912 100.124 36.7318C99.366 41.0807 97.0849 55.8579 94.8448 70.37C92.4061 86.1684 90.016 101.653 89.6926 103.026C88.2967 108.955 84.2657 114.263 75.2907 115.765C60.3653 118.264 40.9414 115.187 33.7195 105.699C30.2606 101.156 26.3351 83.4364 41.5512 78.342C45.6745 77.366 49.1774 79.0251 52.0913 80.8236C55.0052 82.6221 65.9321 89.3664 76.0086 82.0051C86.0851 74.6438 91.0623 64.1351 66.2771 61.9149C41.4919 59.6947 25.1368 63.3605 17.0449 77.2999C9.09105 91.0013 9.84693 110.864 29.9656 124.005C43.9458 133.137 84.7433 134.678 96.1687 125.131C104.724 117.982 107.037 105.348 107.782 100.61L116.022 40.8102C116.036 40.5984 116.036 40.3759 116.024 40.1451Z" fill="white"/>
</svg>
