<svg width="12" height="11" viewBox="0 0 12 11" fill="none" xmlns="http://www.w3.org/2000/svg">
<path d="M3.90006 6.00002C3.90006 5.44307 4.12131 4.90893 4.51514 4.5151C4.90897 4.12127 5.44311 3.90002 6.00006 3.90002C6.55702 3.90002 7.09116 4.12127 7.48499 4.5151C7.87882 4.90893 8.10006 5.44307 8.10006 6.00002C8.10006 6.55698 7.87882 7.09112 7.48499 7.48495C7.09116 7.87878 6.55702 8.10002 6.00006 8.10002C5.44311 8.10002 4.90897 7.87878 4.51514 7.48495C4.12131 7.09112 3.90006 6.55698 3.90006 6.00002ZM3.74886 0.978224C3.83629 0.804403 3.97029 0.658293 4.13592 0.556196C4.30155 0.454098 4.4923 0.40003 4.68686 0.400024H7.32166C7.51677 0.400031 7.70801 0.454395 7.87393 0.557019C8.03986 0.659643 8.17392 0.806468 8.26106 0.981024L8.67056 1.80002H9.85357C10.3177 1.80002 10.7628 1.9844 11.091 2.31259C11.4192 2.64078 11.6036 3.0859 11.6036 3.55002V9.15002C11.6036 9.61415 11.4192 10.0593 11.091 10.3875C10.7628 10.7156 10.3177 10.9 9.85357 10.9H2.15356C1.68944 10.9 1.24432 10.7156 0.916128 10.3875C0.587939 10.0593 0.403564 9.61415 0.403564 9.15002V3.55002C0.403564 3.0859 0.587939 2.64078 0.916128 2.31259C1.24432 1.9844 1.68944 1.80002 2.15356 1.80002H3.33656L3.74886 0.978224ZM6.00006 3.20002C5.25746 3.20002 4.54527 3.49502 4.02017 4.02013C3.49506 4.54523 3.20006 5.25742 3.20006 6.00002C3.20006 6.74263 3.49506 7.45482 4.02017 7.97992C4.54527 8.50502 5.25746 8.80002 6.00006 8.80002C6.74267 8.80002 7.45486 8.50502 7.97996 7.97992C8.50507 7.45482 8.80007 6.74263 8.80007 6.00002C8.80007 5.25742 8.50507 4.54523 7.97996 4.02013C7.45486 3.49502 6.74267 3.20002 6.00006 3.20002Z" fill="white"/>
</svg>
