<svg width="18" height="20" viewBox="0 0 18 20" fill="none" xmlns="http://www.w3.org/2000/svg">
<path d="M11.9149 0.625809L7.97237 8.51758C7.88618 8.68959 7.84542 8.8808 7.85399 9.07301C7.86256 9.26522 7.92016 9.45205 8.02132 9.61571C8.12248 9.77938 8.26383 9.91444 8.43193 10.008C8.60003 10.1017 8.78928 10.1507 8.98168 10.1505H16.8712C17.0636 10.1507 17.2528 10.1017 17.4209 10.008C17.589 9.91444 17.7304 9.77938 17.8315 9.61571C17.9327 9.45205 17.9903 9.26522 17.9989 9.07301C18.0074 8.8808 17.9667 8.68959 17.8805 8.51758L13.9335 0.624681C13.84 0.437021 13.696 0.279152 13.5177 0.168804C13.3394 0.0584563 13.1339 0 12.9242 0C12.7145 0 12.509 0.0584563 12.3307 0.168804C12.1524 0.279152 12.0084 0.437021 11.9149 0.624681V0.625809ZM13.488 2.81471V6.20012C13.488 6.34966 13.4286 6.49308 13.3229 6.59883C13.2171 6.70457 13.0737 6.76398 12.9242 6.76398C12.7746 6.76398 12.6312 6.70457 12.5255 6.59883C12.4197 6.49308 12.3603 6.34966 12.3603 6.20012V2.81471C12.3603 2.66516 12.4197 2.52174 12.5255 2.416C12.6312 2.31026 12.7746 2.25085 12.9242 2.25085C13.0737 2.25085 13.2171 2.31026 13.3229 2.416C13.4286 2.52174 13.488 2.66516 13.488 2.81471ZM12.9242 9.02279C12.7746 9.02279 12.6312 8.96339 12.5255 8.85764C12.4197 8.7519 12.3603 8.60848 12.3603 8.45893C12.3603 8.30939 12.4197 8.16597 12.5255 8.06023C12.6312 7.95448 12.7746 7.89508 12.9242 7.89508C13.0737 7.89508 13.2171 7.95448 13.3229 8.06023C13.4286 8.16597 13.488 8.30939 13.488 8.45893C13.488 8.60848 13.4286 8.7519 13.3229 8.85764C13.2171 8.96339 13.0737 9.02279 12.9242 9.02279ZM1.70565 1.62835C2.66872 1.0893 3.8968 0.962996 5.07075 1.25959C5.64251 1.40506 6.13081 1.77495 6.42402 2.28581L7.52016 4.19842C7.86156 4.79392 7.97398 5.49352 7.83632 6.166C7.69867 6.83847 7.32041 7.43763 6.77248 7.8511L6.09472 8.36308C5.77558 8.60328 5.64364 8.94385 5.70904 9.23142C5.91542 10.1471 6.37101 10.9974 7.00817 11.6233C7.19876 11.8105 7.53256 11.8748 7.89682 11.7361L8.64788 11.4485C9.28014 11.2067 9.97829 11.2005 10.6148 11.4309C11.2513 11.6614 11.7836 12.1131 12.1145 12.7037L13.1903 14.6242C13.4869 15.1542 13.5354 15.7857 13.3256 16.3563C12.9073 17.4874 12.1009 18.3986 11.1097 18.8554C10.1026 19.32 8.92417 19.3008 7.85735 18.5892C6.16802 17.4626 4.13249 15.5681 2.28868 12.4082C0.421175 9.20548 -0.049083 6.47979 0.00391972 4.44877C0.0377512 3.14738 0.725659 2.17642 1.70565 1.62835V1.62835ZM2.25597 2.61172C1.59513 2.98274 1.15306 3.60637 1.13051 4.47809C1.08315 6.29823 1.5004 8.81755 3.2619 11.8398C5.02114 14.852 6.93713 16.6202 8.48323 17.651C9.20497 18.1325 9.96505 18.1415 10.6372 17.8314C11.3262 17.5145 11.9408 16.8503 12.2678 15.965C12.3152 15.8368 12.3342 15.6998 12.3235 15.5635C12.3128 15.4272 12.2726 15.2949 12.2058 15.1756L11.13 13.2551C10.9315 12.9009 10.6122 12.6298 10.2304 12.4915C9.8486 12.3532 9.4298 12.3569 9.05047 12.5018L8.29941 12.7882C7.64533 13.0386 6.80631 13.0059 6.21764 12.4274C5.41245 11.638 4.85874 10.5881 4.60839 9.47952C4.42457 8.66305 4.82942 7.9041 5.41584 7.46203L6.09247 6.95118C6.42143 6.70311 6.64855 6.3435 6.73119 5.93986C6.81383 5.53621 6.74631 5.11629 6.5413 4.75889L5.44629 2.84741C5.37631 2.72558 5.28254 2.61907 5.17056 2.53421C5.05858 2.44936 4.93068 2.38789 4.79446 2.35347C3.86184 2.11665 2.93486 2.23281 2.2571 2.61285L2.25597 2.61172Z" fill="#2D2C3B"/>
</svg>
