<svg width="18" height="20" viewBox="0 0 18 20" fill="none" xmlns="http://www.w3.org/2000/svg">
<path d="M11.9148 0.625814L7.97229 8.51765C7.88609 8.68967 7.84534 8.88088 7.8539 9.07309C7.86247 9.2653 7.92007 9.45213 8.02123 9.6158C8.1224 9.77946 8.26375 9.91452 8.43185 10.0081C8.59994 10.1017 8.7892 10.1508 8.9816 10.1506H16.8712C17.0636 10.1508 17.2528 10.1017 17.4209 10.0081C17.589 9.91452 17.7304 9.77946 17.8315 9.6158C17.9327 9.45213 17.9903 9.2653 17.9989 9.07309C18.0074 8.88088 17.9667 8.68967 17.8805 8.51765L13.9335 0.624686C13.8399 0.437024 13.6959 0.279154 13.5176 0.168806C13.3393 0.0584568 13.1338 0 12.9241 0C12.7145 0 12.5089 0.0584568 12.3306 0.168806C12.1523 0.279154 12.0084 0.437024 11.9148 0.624686V0.625814ZM13.488 2.81473V6.20017C13.488 6.34972 13.4286 6.49314 13.3228 6.59888C13.2171 6.70463 13.0737 6.76403 12.9241 6.76403C12.7746 6.76403 12.6312 6.70463 12.5254 6.59888C12.4197 6.49314 12.3603 6.34972 12.3603 6.20017V2.81473C12.3603 2.66519 12.4197 2.52177 12.5254 2.41602C12.6312 2.31028 12.7746 2.25087 12.9241 2.25087C13.0737 2.25087 13.2171 2.31028 13.3228 2.41602C13.4286 2.52177 13.488 2.66519 13.488 2.81473ZM12.9241 9.02287C12.7746 9.02287 12.6312 8.96347 12.5254 8.85772C12.4197 8.75198 12.3603 8.60855 12.3603 8.45901C12.3603 8.30946 12.4197 8.16604 12.5254 8.0603C12.6312 7.95455 12.7746 7.89514 12.9241 7.89514C13.0737 7.89514 13.2171 7.95455 13.3228 8.0603C13.4286 8.16604 13.488 8.30946 13.488 8.45901C13.488 8.60855 13.4286 8.75198 13.3228 8.85772C13.2171 8.96347 13.0737 9.02287 12.9241 9.02287ZM5.07177 1.26072C3.89893 0.963005 2.66971 1.08931 1.70663 1.62836C0.72551 2.17644 0.0375962 3.14741 0.00376436 4.44881C-0.0481111 6.48097 0.422151 9.20782 2.28967 12.4083C4.1335 15.5693 6.16905 17.4628 7.85839 18.5894C8.92522 19.301 10.1037 19.3202 11.1108 18.8555C12.1032 18.3988 12.9083 17.4876 13.3267 16.3565C13.4309 16.0752 13.4727 15.7746 13.4493 15.4755C13.426 15.1765 13.338 14.886 13.1914 14.6243L12.1156 12.7038C11.7847 12.1132 11.2523 11.6615 10.6158 11.431C9.97935 11.2006 9.28119 11.2068 8.64892 11.4486L7.89786 11.7351C7.5336 11.8749 7.19867 11.8106 7.00921 11.6234C6.37204 10.9975 5.91644 10.1472 5.71006 9.23263C5.64466 8.94393 5.77773 8.60336 6.09575 8.36315L6.77351 7.85116C7.32144 7.4377 7.69971 6.83853 7.83736 6.16605C7.97502 5.49356 7.8626 4.79396 7.52119 4.19845L6.42504 2.28696C6.27983 2.03389 6.08518 1.81262 5.8527 1.63632C5.62021 1.46002 5.35463 1.33228 5.07177 1.26072V1.26072Z" fill="#2D2C3B"/>
</svg>
