<svg width="18" height="17" viewBox="0 0 18 17" fill="none" xmlns="http://www.w3.org/2000/svg">
<path d="M17.6275 8.33179L9.4491 0.185531C9.39021 0.126718 9.32027 0.0800584 9.24327 0.0482226C9.16627 0.0163869 9.08373 0 9.00037 0C8.91701 0 8.83447 0.0163869 8.75747 0.0482226C8.68047 0.0800584 8.61053 0.126718 8.55164 0.185531L0.373278 8.33179C0.135015 8.56929 0 8.8919 0 9.22835C0 9.927 0.569845 10.495 1.27073 10.495H2.13245V16.3078C2.13245 16.6582 2.41638 16.9412 2.76782 16.9412H7.72964V12.5078H9.95342V16.9412H15.2329C15.5844 16.9412 15.8683 16.6582 15.8683 16.3078V10.495H16.73C17.0675 10.495 17.3912 10.3624 17.6295 10.1229C18.1238 9.62815 18.1238 8.82658 17.6275 8.33179V8.33179Z" fill="#2D2C3B"/>
</svg>
