<svg width="14" height="14" viewBox="0 0 14 14" fill="none" xmlns="http://www.w3.org/2000/svg">
<path d="M8.99991 11V11.5C8.99991 12.0304 8.7892 12.5391 8.41412 12.9142C8.03905 13.2893 7.53034 13.5 6.99991 13.5C6.46948 13.5 5.96077 13.2893 5.5857 12.9142C5.21062 12.5391 4.99991 12.0304 4.99991 11.5V11M12.3649 9.98219C11.5624 9 10.9958 8.5 10.9958 5.79219C10.9958 3.3125 9.7296 2.42906 8.68741 2C8.54897 1.94312 8.41866 1.8125 8.37647 1.67031C8.19366 1.04812 7.68116 0.5 6.99991 0.5C6.31866 0.5 5.80585 1.04844 5.62491 1.67094C5.58272 1.81469 5.45241 1.94312 5.31397 2C4.27054 2.42969 3.00554 3.31 3.00554 5.79219C3.00397 8.5 2.43741 9 1.63491 9.98219C1.30241 10.3891 1.59366 11 2.17522 11H11.8277C12.4062 11 12.6955 10.3872 12.3649 9.98219Z" stroke="white" stroke-linecap="round" stroke-linejoin="round"/>
</svg>
